<svg xmlns="http://www.w3.org/2000/svg" width="72" height="72" viewBox="0 0 72 72"><g><g><path fill="#2c6269" d="M44 72c15.464 0 28-12.536 28-28S59.464 16 44 16 16 28.536 16 44s12.536 28 28 28z"/></g><g><path fill="#79c8c7" d="M49 7c-.62 0-1.185-.243-1.603-.639a1.29 1.29 0 0 0-.091-.092 2.325 2.325 0 0 1-.64-1.602A2.336 2.336 0 0 1 49 2.333a2.336 2.336 0 0 1 2.333 2.334A2.306 2.306 0 0 1 49 7zM35 21c-1.288 0-2.333-1-2.333-2.333A2.336 2.336 0 0 1 35 16.333a2.336 2.336 0 0 1 2.333 2.334A2.306 2.306 0 0 1 35 21zm-14-4.667c-.712 0-1.35-.333-1.778-.823a1.101 1.101 0 0 0-.089-.111A2.34 2.34 0 0 1 18.667 14 2.336 2.336 0 0 1 21 11.667 2.336 2.336 0 0 1 23.333 14 2.336 2.336 0 0 1 21 16.333zm-9.919 7.072l7.117-5.675c.802.588 1.751.937 2.802.937a4.598 4.598 0 0 0 4-2.306l5.397 1.532A4.671 4.671 0 0 0 35 23.333a4.671 4.671 0 0 0 4.667-4.666c0-.865-.236-1.667-.667-2.37l7.63-7.611a4.639 4.639 0 0 0 2.37.647 4.671 4.671 0 0 0 4.667-4.666A4.671 4.671 0 0 0 49 0a4.671 4.671 0 0 0-4.667 4.667c0 .864.236 1.674.667 2.333l-7.63 7.647a4.66 4.66 0 0 0-6.004 1.095l-5.7-1.626V14A4.671 4.671 0 0 0 21 9.333a4.671 4.671 0 0 0-4.26 6.573l-7.274 5.8A4.64 4.64 0 0 0 7 21a4.671 4.671 0 0 0-4.667 4.667A4.671 4.671 0 0 0 7 30.333a4.671 4.671 0 0 0 4.667-4.666c0-.82-.213-1.592-.586-2.262zM7 28c-1.288 0-2.333-1-2.333-2.333A2.336 2.336 0 0 1 7 23.333c.625 0 1.194.248 1.613.667.023 0 .047 0 .072.054.402.42.648.946.648 1.613A2.306 2.306 0 0 1 7 28zm44.333 25.667h-4.666V21h4.666zm-14 0h-4.666V35h4.666zm-14 0h-4.666V30.333h4.666zm-14 0H4.667V42h4.666zm45.5 0h-1.166V19.833c0-.644-.523-1.166-1.167-1.166h-7c-.644 0-1.167.522-1.167 1.166v33.834h-4.666V33.833c0-.644-.523-1.166-1.167-1.166h-7c-.644 0-1.167.522-1.167 1.166v19.834h-4.666v-24.5c0-.644-.523-1.167-1.167-1.167h-7c-.644 0-1.167.523-1.167 1.167v24.5h-4.666V40.833c0-.644-.523-1.166-1.167-1.166h-7c-.644 0-1.167.522-1.167 1.166v12.834H1.167a1.167 1.167 0 0 0 0 2.333h53.666a1.167 1.167 0 0 0 0-2.333z"/></g></g></svg>