<svg xmlns="http://www.w3.org/2000/svg" width="160" height="40" viewBox="0 0 160 40"><g><g><path fill="#fff" d="M127.309 29.531V8.192h6.213v3.103a6.018 6.018 0 0 1 2.18-2.612A6.276 6.276 0 0 1 139 7.768c3.272 0 5.504 1.232 6.666 3.75 1.527-2.518 3.598-3.795 6.214-3.795 2.616 0 4.615.841 5.996 2.523 1.38 1.681 2.07 4.07 2.07 7.165v12.12H153.8V18.147c0-1.31-.313-2.343-.938-3.147-.654-.714-1.511-1.094-2.573-1.094-1.06 0-1.91.357-2.55 1.094-.64.692-.96 1.778-.96 3.237V29.53h-6.213V18c-.059-1.266-.4-2.27-1.025-3-.64-.73-1.468-1.094-2.486-1.094-1.054 0-1.86.35-2.529 1.094-.668.655-1.003 1.749-1.003 3.237V29.53zm-13-7.031c.989-.938 1.483-2.15 1.483-3.638s-.494-2.709-1.483-3.661c-.988-.952-2.158-1.429-3.51-1.429-1.352 0-2.594.484-3.728 1.451-1.071.982-1.57 2.195-1.57 3.639 0 1.458.499 2.663 1.57 3.616 1.017.952 2.231 1.428 3.64 1.428 1.41 0 2.61-.468 3.598-1.406zm-12.056 4.353c-2.108-2.054-3.162-4.725-3.162-8.014 0-3.288 1.09-5.96 3.27-8.013 2.18-2.054 4.639-3.088 7.348-3.103 1.105 0 2.238.277 3.401.737 1.163.54 2.057 1.19 2.682 2.098V8.192h6.148v21.34h-6.148v-2.434c-.625.902-1.526 1.615-2.704 2.12-1.177.507-2.303.782-3.38.715-2.862 0-5.348-1.027-7.455-3.08zM90.19 17c-.191-1.196-.647-2.09-1.505-2.714a4.987 4.987 0 0 0-2.856-.982c-1.046-.03-2.02.282-2.921.937-.909.655-1.512 1.563-1.745 2.759zM78 26.875c-2.075-2.098-3.115-4.792-3.115-8.08 0-3.29 1.04-5.96 3.115-8.014 2.082-2.053 4.654-3.073 7.721-3.058 3.067 0 5.618 1.042 7.653 3.125 2.035 2.084 3.06 4.792 3.074 8.152l-.087 1.938H81.077c.116 1.13.683 2.008 1.7 2.633 1.018.625 2.166.938 3.445.938 1.992 0 3.51-.67 4.557-2.009l4.513 3.147C93.36 28.55 90.183 30 85.765 30c-3.067 0-5.654-1.057-7.765-3.125zm-15.853 2.656V13.214h-3.793V8.192h3.793V0h6.17v8.192H72.7v5.022h-4.383v16.317zM38.072 40l5.015-12.656L35 8.192h6.648l4.6 12.098 4.644-12.098h6.606L44.635 40zM0 29.531V8.192h6.214v3.103c.508-1.102 1.235-1.972 2.18-2.612a6.251 6.251 0 0 1 3.27-.915c3.336 0 5.53 1.232 6.694 3.75C19.884 9 22 7.723 24.57 7.723c2.616 0 4.615.841 5.996 2.523 1.38 1.681 2.071 4.07 2.071 7.165v12.12H26.49V18.147c0-1.31-.313-2.343-.938-3.147-.654-.714-1.552-1.094-2.552-1.094-1.081 0-1.932.357-2.571 1.094-.64.692-.96 1.778-.96 3.237V29.53h-6.213V18c-.058-1.266-.4-2.27-1.025-3-.64-.73-1.468-1.094-2.485-1.094-1.018 0-1.86.35-2.53 1.094-.668.655-1.002 1.749-1.002 3.237V29.53z"/></g></g></svg>