<svg xmlns="http://www.w3.org/2000/svg" width="72" height="72" viewBox="0 0 72 72"><g><g><path fill="#2c6269" d="M44 72c15.464 0 28-12.536 28-28S59.464 16 44 16 16 28.536 16 44s12.536 28 28 28z"/></g><g><path fill="#79c8c7" d="M26.456 36.057c-.29 0-.568-.115-.773-.32l-6.917-6.917a1.093 1.093 0 0 1 0-1.547l3.923-3.923c.205-.205.484-.35.774-.35.29 0 .537.145.773.35l2.22 2.22 5.308-5.307a1.094 1.094 0 0 1 1.547 0l3.923 3.923c.427.427.427 1.12 0 1.547L27.23 35.737c-.23.205-.484.32-.774.32zM21.086 28l5.37 5.417L34.914 25l-2.377-2.417-5.307 5.308c-.23.205-.484.32-.774.32-.29 0-.568-.115-.773-.32l-2.22-2.22zm17.671-9.186c-.289 0-.57-.116-.757-.321a1.06 1.06 0 0 1 0-1.546c.186-.204.468-.32.757-.32.243 0 .57.116.774.32.203.203.32.485.32.773 0 .28-.117.57-.32.773-.205.205-.531.32-.774.32zM16.708 39.292c-6.226-6.227-6.226-16.357 0-22.584a15.823 15.823 0 0 1 9.209-4.54 16.079 16.079 0 0 1 9.889 1.897c.527.295.714.935.419 1.488a1.128 1.128 0 0 1-1.489.447c-5.356-3-12.133-2.092-16.48 2.255-5.374 5.373-5.374 14.117 0 19.49A13.742 13.742 0 0 0 28 41.775c3.53 0 7.058-1.343 9.745-4.03 4.201-4.201 5.255-10.592 2.588-15.903-.27-.54-.05-1.198.49-1.468s1.177-.05 1.467.49c3.075 6.136 1.87 13.56-2.998 18.428C36.178 42.405 32.089 44 28 44c-4.09 0-8.178-1.595-11.292-4.708zM31.718 56h-7.437c-1.206 0-2.187-1-2.187-2.188v-3.265a22.908 22.908 0 0 1-5.859-2.43l-2.31 2.312a2.19 2.19 0 0 1-3.094 0l-5.26-5.26a2.19 2.19 0 0 1 0-3.093l2.311-2.311a22.903 22.903 0 0 1-2.43-5.859H2.188A2.202 2.202 0 0 1 0 31.72V24.28c0-1.206 1-2.187 2.187-2.187h3.259a23.28 23.28 0 0 1 2.426-5.869l-2.3-2.301a2.19 2.19 0 0 1 0-3.093l5.259-5.26a2.19 2.19 0 0 1 3.093 0l2.293 2.294C18.06 6.782 20 6 22.094 5.425V2.188C22.094 1 23.075 0 24.28 0h7.438c1.206 0 2.187 1 2.187 2.188v3.23C36 6 37.948 6.773 39.792 7.854l2.284-2.283a2.19 2.19 0 0 1 3.093 0l5.26 5.26a2.19 2.19 0 0 1 0 3.093l-2.283 2.284C49.227 18.052 50 20 50.582 22.094h3.23C55 22.094 56 23.075 56 24.28v7.438c0 1.206-1 2.187-2.188 2.187h-3.237C50 36 49.217 37.941 48.135 39.783l2.293 2.293a2.19 2.19 0 0 1 0 3.093l-5.259 5.26a2.19 2.19 0 0 1-3.093 0l-2.301-2.301a23.289 23.289 0 0 1-5.869 2.426v3.259A2.202 2.202 0 0 1 31.72 56zM16.072 45.641c.204 0 .407.056.589.172a20.79 20.79 0 0 0 6.764 2.805c.5.111.857.555.857 1.068v4.127h7.438v-4.12c0-.514.357-.959.859-1.069a20.85 20.85 0 0 0 6.774-2.801 1.063 1.063 0 0 1 1.361.177l2.91 2.882 5.259-5.26L46 40.72a1.07 1.07 0 0 1-.17-1.362 20.867 20.867 0 0 0 2.816-6.78c.11-.502.555-.858 1.068-.858h4.098V24.28H49.72c-.514 0-.958-.357-1.068-.859a20.898 20.898 0 0 0-2.811-6.79A1.082 1.082 0 0 1 46 15.27l2.882-2.893-5.26-5.259L40.73 10c-.363.374-.929.436-1.362.16a20.906 20.906 0 0 0-6.79-2.812 1.094 1.094 0 0 1-.86-1.068V2.187h-7.437v4.099c0 .513-.356.957-.857 1.068a20.864 20.864 0 0 0-6.78 2.815A1.07 1.07 0 0 1 15.28 10l-2.904-2.882-5.259 5.26L10 15.287c.39.362.453.928.177 1.36a20.85 20.85 0 0 0-2.801 6.774c-.11.502-.555.86-1.068.86h-4.12v7.437h4.126c.513 0 .957.356 1.068.857a20.799 20.799 0 0 0 2.805 6.764c.276.433.215 1-.187 1.362l-2.882 2.92 5.26 5.26L15.297 46a.993.993 0 0 1 .773-.359z"/></g></g></svg>