<svg xmlns="http://www.w3.org/2000/svg" width="358" height="200" viewBox="0 0 358 200"><g><g><path fill="#2c6269" d="M100 200c55.229 0 100-44.772 100-100S155.229 0 100 0C44.772 0 0 44.772 0 100s44.772 100 100 100z"/></g><g><path fill="#012f34" d="M158 100C158 44.772 202.771 0 258 0s100 44.772 100 100-44.771 100-100 100-100-44.772-100-100zm100 33c18.225 0 33-14.775 33-33s-14.775-33-33-33-33 14.775-33 33 14.775 33 33 33z"/></g><g transform="rotate(180 336.5 21.5)"><path fill="#79c8c7" d="M315 0h43v43h-43z"/></g><g><path fill="#f67e7e" d="M133.51 100c0-55.228 44.771-100 100-100s100 44.772 100 100-44.771 100-100 100-100-44.772-100-100zm100 33c18.225 0 33-14.775 33-33s-14.775-33-33-33-33 14.775-33 33 14.775 33 33 33z"/></g><g><path fill="#79c8c7" d="M0 0h100v4H0zm0 8h100v4H0zm0 8h100v4H0zm0 8h100v4H0zm0 8h100v4H0zm0 8h100v4H0z"/></g></g></svg>