<svg xmlns="http://www.w3.org/2000/svg" width="200" height="244" viewBox="0 0 200 244"><g><g transform="rotate(180 50 94)"><path fill="#2c6269" d="M0 44h100v100H0z"/></g><g><path fill="#014e56" d="M0 144C0 88.771 44.771 44 100 44s100 44.771 100 100-44.771 100-100 100S0 199.229 0 144zm100 33c18.225 0 33-14.775 33-33s-14.775-33-33-33-33 14.775-33 33 14.775 33 33 33z"/></g><g><path fill="#79c8c7" d="M0 144h100v4H0zm0 8h100v4H0zm0 8h100v4H0zm0 8h100v4H0zm0 8h100v4H0zm0 8h100v4H0z"/></g><g><path fill="#79c8c7" d="M49 40h4v4h-4zm0-8h4v4h-4zm0-8h4v4h-4zm0-8h4v4h-4zm0-8h4v4h-4zm0-8h4v4h-4zm-7 40h4v4h-4zm0-8h4v4h-4zm0-8h4v4h-4zm0-8h4v4h-4zm0-8h4v4h-4zm0-8h4v4h-4zm-7 40h4v4h-4zm0-8h4v4h-4zm0-8h4v4h-4zm0-8h4v4h-4zm0-8h4v4h-4zm0-8h4v4h-4zm-7 40h4v4h-4zm0-8h4v4h-4zm0-8h4v4h-4zm0-8h4v4h-4zm0-8h4v4h-4zm0-8h4v4h-4zm-7 40h4v4h-4zm0-8h4v4h-4zm0-8h4v4h-4zm0-8h4v4h-4zm0-8h4v4h-4zm0-8h4v4h-4zm-7 40h4v4h-4zm0-8h4v4h-4zm0-8h4v4h-4zm0-8h4v4h-4zm0-8h4v4h-4zm0-8h4v4h-4zM7 40h4v4H7zm0-8h4v4H7zm0-8h4v4H7zm0-8h4v4H7zm0-8h4v4H7zm0-8h4v4H7zM0 40h4v4H0zm0-8h4v4H0zm0-8h4v4H0zm0-8h4v4H0zm0-8h4v4H0zm0-8h4v4H0z"/></g></g></svg>